<svg width="21" height="23" viewBox="0 0 21 23" fill="none" xmlns="http://www.w3.org/2000/svg">
<path id="Delete" d="M6.0673 2.07H5.85897C5.97355 2.07 6.0673 1.9665 6.0673 1.84V2.07ZM6.0673 2.07H13.984V1.84C13.984 1.9665 14.0777 2.07 14.1923 2.07H13.984V4.14H15.859V1.84C15.859 0.825125 15.1116 0 14.1923 0H5.85897C4.9397 0 4.1923 0.825125 4.1923 1.84V4.14H6.0673V2.07ZM19.1923 4.14H0.858968C0.398031 4.14 0.0256348 4.55113 0.0256348 5.06V5.98C0.0256348 6.1065 0.119385 6.21 0.233968 6.21H1.80688L2.45011 21.2463C2.49178 22.2266 3.22616 23 4.11418 23H15.9371C16.8277 23 17.5595 22.2295 17.6012 21.2463L18.2444 6.21H19.8173C19.9319 6.21 20.0256 6.1065 20.0256 5.98V5.06C20.0256 4.55113 19.6532 4.14 19.1923 4.14ZM15.7366 20.93H4.3147L3.68449 6.21H16.3668L15.7366 20.93Z" fill="white" fill-opacity="0.501961"/>
</svg>
