<svg width="210" height="55" viewBox="0 0 210 55" fill="none" xmlns="http://www.w3.org/2000/svg">
<path fill-rule="evenodd" clip-rule="evenodd" d="M22.0365 0.136647C17.4666 0.810504 13.5297 2.81786 10.0379 6.25427C9.27025 7.00988 8.19603 8.21548 7.65092 8.93332C7.10582 9.6513 6.15859 10.8595 5.54583 11.6183C2.81911 14.9956 1.2208 18.3124 0.379688 22.3393C-0.0291734 24.296 -0.124983 28.2112 0.176443 30.6368C1.37541 40.2841 6.83188 48.5562 14.6547 52.5862C15.9717 53.2645 18.065 54.0764 18.4975 54.0764C18.6371 54.0764 18.7541 54.0004 18.7577 53.9073C18.7614 53.8143 18.7585 49.9235 18.7515 45.2612L18.7388 36.7843L19.6139 36.3651C20.854 35.7708 22.0519 34.5205 22.4194 33.4371C22.7386 32.4957 22.813 32.8491 22.5132 33.8832C22.1678 35.0746 20.7004 36.451 19.2656 36.9296C19.1487 36.9684 19.0129 37.2035 18.9636 37.4518C18.8519 38.0159 18.9569 52.034 19.0751 52.3318C19.1264 52.4609 19.6291 52.6952 20.311 52.9078C22.7306 53.662 25.5643 53.8539 28.4886 53.4613C31.0743 53.1142 33.8621 52.318 34.119 51.8532C34.2309 51.6507 34.2875 49.4715 34.3222 44.0275C34.3703 36.4834 34.3703 36.4823 34.0981 36.4823C33.9484 36.4823 33.4975 36.3564 33.096 36.2027C30.198 35.0921 28.4297 32.115 28.211 27.9785L28.1418 26.6701L28.323 28.0912C28.5755 30.0722 28.7402 30.6882 29.3906 32.0837C30.3375 34.1152 31.9626 35.5128 33.8918 35.955C34.5132 36.0974 34.6498 36.0922 34.8179 35.9202C35.1407 35.5894 34.9038 35.2983 34.1693 35.1235C31.8808 34.5786 30.1799 32.6566 29.4435 29.783C29.2225 28.9211 29.1654 28.2926 29.1637 26.7023C29.1619 25.0928 29.124 24.6828 28.9686 24.5938C28.5561 24.3574 29.5323 21.4298 30.5357 19.8934C31.5888 18.2807 32.8049 17.3877 34.2678 17.1528C38.2648 16.5109 41.5744 21.5816 41.3114 27.9449C41.2311 29.8866 41.0144 30.8551 40.3465 32.256C39.5452 33.9371 37.9006 35.329 36.3846 35.6093C36.0984 35.6622 35.79 35.7659 35.699 35.8398C35.4447 36.0465 35.4741 46.3133 35.7391 49.8132C35.8801 51.6754 36.0002 52.5782 36.1239 52.7065C36.4964 53.0925 40.303 51.0513 42.7928 49.1303C49.45 43.9944 52.8659 36.3948 52.3117 27.9534C52.0112 23.3753 51.1233 20.1619 48.8753 15.5153C47.0011 11.642 45.8549 9.968 43.3813 7.49169C39.6597 3.76632 34.3897 1.15278 28.8184 0.269686C26.9581 -0.025219 23.5828 -0.0914003 22.0365 0.136647ZM28.4175 1.09959C30.2238 1.35768 32.4518 1.9345 34.1782 2.59117C35.8262 3.21793 36.0902 3.45369 34.5451 2.91883C32.5125 2.21519 30.8431 1.94276 28.1148 1.86954C25.4085 1.79686 23.8439 1.93071 21.2928 2.45312C17.5813 3.21333 13.8017 4.8148 10.6903 6.94572L10.3599 7.17201L10.6242 6.85586C11.1491 6.22815 13.4847 4.40404 14.6842 3.68512C17.0888 2.24375 19.6592 1.32547 22.2531 0.981166C23.3548 0.834863 27.063 0.906188 28.4175 1.09959ZM35.2696 4.09615C40.0564 5.92567 44.2871 9.52679 47.1419 14.2018C49.1838 17.5458 50.0676 22.3252 49.6227 27.6175C49.4942 29.1459 49.3608 29.0435 49.2351 27.3196C49.1191 25.7279 48.5685 23.0838 47.9539 21.1671C45.4027 13.2099 40.2006 6.67369 34.2124 3.90112C33.0019 3.34068 33.5647 3.44449 35.2696 4.09615ZM18.2887 4.32311C11.3907 7.23264 6.30184 13.2018 4.4761 20.5256C3.6001 24.0391 3.6038 29.0153 4.48548 33.1635C5.39359 37.4361 7.15643 41.512 9.57921 44.941C9.9138 45.4146 9.60616 45.1483 8.55388 44.0534C2.74947 38.0146 0.827795 29.7216 3.09636 20.5016C3.78841 17.6889 5.03759 14.6032 6.46174 12.1885C7.29056 10.7831 8.9075 9.25191 11.2425 7.66099C13.5024 6.12137 15.6257 5.06599 18.553 4.02739C19.45 3.70921 19.272 3.90829 18.2887 4.32311ZM36.6624 16.1193C38.9944 16.7374 40.9954 19.1485 41.9432 22.483C43.5335 28.0767 42.3339 33.6556 39.0771 35.8113C38.6589 36.0882 37.9198 36.4247 37.4348 36.5593L36.553 36.8037L36.6348 42.4964C36.7135 47.9672 36.8434 50.1935 37.0994 50.4557C37.4421 50.8066 41.4848 48.0889 43.3547 46.2507C46.2691 43.386 47.889 40.3681 48.7533 36.1944C48.9132 35.4223 49.2428 33.9988 49.4855 33.0311C50.3298 29.6674 50.6691 26.8455 50.5757 23.9682C50.5453 23.0334 50.5603 22.3455 50.609 22.4393C50.6578 22.5332 50.8226 23.2799 50.9753 24.0987C51.8375 28.7235 51.6576 33.1512 50.4541 36.9288C48.5782 42.8173 44.0121 48.0439 38.0957 51.0749L36.7593 51.7596L36.6809 50.9895C36.4588 48.8028 36.317 44.3557 36.3526 40.6966L36.3928 36.5874L37.2086 36.2851C39.0344 35.608 40.2296 34.4593 41.1477 32.4989C42.3645 29.9006 42.56 26.8309 41.7253 23.422C40.5846 18.7624 37.7859 15.9487 34.5671 16.225C33.5694 16.3107 33.4766 16.2571 34.2863 16.0627C35.0795 15.8725 35.7948 15.8895 36.6624 16.1193ZM14.3434 23.2661C14.3601 29.3557 14.3864 30.1627 14.5777 30.4614C14.7886 30.7911 15.2278 30.899 15.5269 30.6945C15.9729 30.3894 16.0158 29.9202 16.2095 23.2241C16.3162 19.5366 16.456 16.4617 16.5202 16.3911C16.5938 16.31 16.6843 16.3111 16.7655 16.3942C16.8429 16.4735 16.9287 19.1641 16.981 23.1544C17.0755 30.3521 17.1073 30.6627 17.7504 30.6627C17.9642 30.6627 18.1653 30.5361 18.3095 30.3109C18.5106 29.9964 18.5428 29.2576 18.6141 23.3071C18.6578 19.6484 18.7404 16.5779 18.7976 16.4837C18.9678 16.2032 19.128 16.4209 19.2001 17.0303C19.2374 17.345 19.3007 19.064 19.341 20.8505C19.5476 30.0165 19.5889 30.5329 20.1331 30.7468C20.4849 30.8852 20.9459 30.6836 21.1073 30.3212C21.2189 30.07 21.262 28.0751 21.262 23.1449C21.262 17.3083 21.2895 16.3166 21.4514 16.3166C21.5555 16.3166 21.6893 16.4536 21.7487 16.6212C21.8081 16.7887 21.8417 20.4881 21.8234 24.8421L21.7902 32.7585L21.4526 33.4653C21.2669 33.8538 20.8432 34.4168 20.5112 34.7162C19.9144 35.2542 18.6819 35.9409 18.313 35.9409C17.8018 35.9409 17.7954 36.0589 17.845 44.6683C17.8766 50.1732 17.848 52.9933 17.7604 52.9926C17.4624 52.9901 14.6461 51.6559 13.6315 51.0366C9.38574 48.4452 6.09978 44.7085 3.7485 39.7981C1.733 35.589 0.864004 31.7873 0.855679 27.1438C0.848675 23.2238 1.33432 20.9256 2.9543 17.2134C3.41496 16.1578 3.51169 16.3116 3.09688 17.4402C1.74674 21.114 1.01703 26.8455 1.43065 30.5273C2.09244 36.4178 4.34224 41.1187 8.46283 45.2205C9.96904 46.7198 10.7607 47.3663 12.7386 48.712C13.4654 49.2065 14.587 49.9763 15.231 50.4227C15.8751 50.869 16.4549 51.2343 16.5194 51.2343C16.5864 51.2343 16.6369 48.1802 16.6369 44.1248C16.6369 37.4736 16.622 37.0101 16.4056 36.9371C15.2516 36.5479 13.8797 35.5157 13.4672 34.7265C13.379 34.5573 13.6269 34.7463 14.0184 35.1462C14.8024 35.9471 15.9958 36.6176 16.6373 36.6176C17.0073 36.6176 17.0465 36.5797 17.009 36.2581C16.9764 35.9766 16.8548 35.859 16.4485 35.7157C15.0299 35.2151 14.0254 34.1538 13.7069 32.819C13.5679 32.2364 13.4718 32.0751 13.2444 32.0419C12.9828 32.0037 12.9628 31.938 13.0175 31.2975C13.0506 30.9111 13.2566 27.4332 13.4754 23.569C13.6941 19.7046 13.9057 16.4887 13.9456 16.4226C13.9855 16.3564 14.0871 16.326 14.1713 16.3547C14.2843 16.3934 14.3293 18.2037 14.3434 23.2661ZM32.7588 53.1536C29.9455 53.9365 28.3701 54.1323 25.0943 54.1062C23.459 54.0931 21.8534 54.0657 21.5263 54.0456C20.975 54.0115 20.9317 54.0327 20.9317 54.3374C20.9317 54.8305 21.3795 54.9119 24.4996 54.9848C27.6834 55.0591 29.5365 54.8703 32.2097 54.1989C34.3724 53.6558 34.4767 53.6106 34.4767 53.2146C34.4767 53.0346 34.4024 52.8604 34.3115 52.8274C34.2207 52.7944 33.5219 52.9412 32.7588 53.1536Z" fill="white"/>
<path d="M87.4544 12.6636V13.1229C92.21 13.1229 89.9089 18.8492 89.4794 20.3191L86.2886 29.077L81.5944 16.2157C81.5638 16.0932 80.4593 13.1229 83.2205 13.1229V12.6636H74.2004V13.1229C75.0901 13.1229 76.164 13.2148 77.0537 15.542L78.7411 20.1047L75.6424 28.9545L70.7948 16.2157C70.7335 16.0932 69.6903 13.1229 72.3902 13.1229V12.6636H63.3701V13.1229C64.2905 13.1229 65.3337 13.2148 66.2541 15.542L73.7402 34.2215H74.2004L78.9866 20.7784L84.2943 34.2215H84.7545L89.9396 20.4416C92.6088 13.8578 94.0508 13.1229 95.8916 13.1229V12.6636H87.4544Z" fill="white"/>
<path d="M103.443 27.1478C103.443 32.6904 102.4 34.0377 100.098 34.0377C97.8281 34.0377 96.7543 32.6904 96.7543 27.1478C96.7543 21.6052 97.8281 20.2578 100.098 20.2578C102.4 20.2578 103.443 21.6052 103.443 27.1478ZM107.308 27.1478C107.308 23.1057 104.793 19.7985 100.098 19.7985C95.435 19.7985 92.9192 23.1057 92.9192 27.1478C92.9192 31.1593 95.435 34.4971 100.098 34.4971C104.793 34.4971 107.308 31.1593 107.308 27.1478Z" fill="white"/>
<path d="M123.592 20.0741V20.5028C126.844 20.5028 125.31 24.6368 125.31 24.6368L123.377 29.9956L120.033 22.4626C120.033 22.4626 118.959 20.5028 120.923 20.5028V20.0741H114.326V20.5028C114.817 20.5334 115.554 20.5947 116.229 21.9727C116.229 21.9727 116.351 22.2176 117.302 24.2999L115.216 29.9956L111.841 22.432C111.841 22.432 110.859 20.5028 112.639 20.5028V20.0741H106.073V20.5028C106.564 20.5334 107.362 20.5947 108.037 21.9727C108.037 21.9727 108.436 22.7382 113.651 34.4971H114.081L117.548 24.9124L121.843 34.4971H122.242L125.801 24.7899C127.274 20.6253 128.654 20.5028 129.329 20.5028V20.0741H123.592Z" fill="white"/>
<path d="M152.252 12.6636V13.1229C157.007 13.1229 154.706 18.8492 154.277 20.3191L151.086 29.077L146.392 16.2157C146.361 16.0932 145.257 13.1229 148.018 13.1229V12.6636H138.998V13.1229C139.887 13.1229 140.961 13.2148 141.851 15.542L143.538 20.1047L140.44 28.9545L135.592 16.2157C135.531 16.0932 134.488 13.1229 137.188 13.1229V12.6636H128.167V13.1229C129.088 13.1229 130.131 13.2148 131.051 15.542L138.538 34.2215H138.998L143.784 20.7784L149.092 34.2215H149.552L154.737 20.4416C157.406 13.8578 158.848 13.1229 160.689 13.1229V12.6636H152.252Z" fill="white"/>
<path d="M167.249 19.921C166.267 20.166 164.764 20.809 163.383 23.1057V19.7985L158.566 20.8397V21.299C159.824 21.7583 160.1 22.2176 160.1 23.2588V30.9143C160.1 32.5066 160.039 33.3947 158.873 33.7621V34.2215H164.641V33.7621C163.536 33.4559 163.383 32.6291 163.383 30.9143V23.9019C164.426 21.9727 166.083 21.4521 166.021 21.8808C165.991 22.3401 166.175 22.8301 166.543 23.2282C167.371 23.9937 168.599 23.9631 169.366 23.1975C170.133 22.432 170.133 21.1765 169.366 20.4109C168.813 19.8904 167.862 19.7679 167.249 19.921Z" fill="white"/>
<path d="M176.884 26.8416C176.884 26.8416 176.884 31.1286 176.884 31.1899C176.608 31.9248 175.871 32.8741 174.552 32.8741C172.619 32.8741 172.343 31.098 172.343 30.6693C172.343 28.9545 173.601 27.5765 176.884 26.8416ZM182.498 32.2004C182.314 32.8435 181.639 32.8435 181.639 32.8435C180.197 32.8435 180.197 30.8224 180.197 30.8224V25.9229C180.197 22.3095 179.216 19.7985 175.534 19.7985C175.534 19.7985 173.969 19.7066 172.619 20.4109C170.962 21.299 170.502 22.1564 170.226 22.6464C169.95 23.1363 169.981 23.81 170.349 24.3306C170.84 25.0349 171.852 25.188 172.558 24.698C173.264 24.1775 173.448 23.1975 172.926 22.4932C172.65 22.1258 172.312 21.942 171.883 21.8808C171.699 21.8502 171.852 21.299 172.926 20.7478C175.227 19.6454 176.884 21.3296 176.884 24.4837V26.321C171.576 27.6684 168.999 28.1583 168.999 31.3736C168.999 34.4971 172.527 34.4971 172.527 34.4971C174.675 34.4971 176.485 33.3641 176.915 31.9554C177.191 34.5277 179.737 34.4971 179.737 34.4971C181.517 34.4971 182.744 33.3334 182.959 32.3842L182.498 32.2004Z" fill="white"/>
<path d="M194.059 27.6377C194.059 32.4148 192.556 34.0377 190.408 34.0377C188.659 34.0377 186.972 32.8741 186.757 29.9344V24.2693C186.941 22.3095 188.138 20.8397 190.071 20.8397C192.648 20.8397 194.059 22.7382 194.059 27.6377ZM197.833 27.2703C197.833 22.7382 195.133 19.7985 191.359 19.7985C189.856 19.7985 187.708 20.5028 186.757 22.2176V19.7985L181.971 20.8397V21.299C183.229 21.6358 183.505 21.9114 183.505 22.9832V39.2435C183.505 40.8052 183.444 41.5401 182.278 41.877V42.3363H188.015V41.877C186.911 41.6014 186.757 40.9277 186.757 39.2435V33.4559C187.708 34.099 188.997 34.4971 190.47 34.4971C194.673 34.4971 197.833 32.1086 197.833 27.2703Z" fill="white"/>
<path d="M208.39 32.9047C209.894 30.7612 209.004 28.1889 206.243 26.4741L203.144 24.5449C200.475 22.8607 201.027 20.2578 203.481 20.2578C206.826 20.2578 207.746 22.8913 208.053 24.3306H208.513V20.7478C208.513 20.7478 207.01 19.7985 203.481 19.7985C200.383 19.7985 199.339 21.4521 199.339 21.4521C197.867 23.5956 198.603 25.7392 201.579 27.6377L204.678 29.5057C207.01 31.0368 207.01 34.0377 204.31 34.0377C200.505 34.0377 199.646 30.7918 199.309 29.1688H198.849V33.1803C198.849 33.1803 200.597 34.4971 204.31 34.4971C207.286 34.4971 208.39 32.9047 208.39 32.9047Z" fill="white"/>
</svg>
