<svg width="34" height="30" viewBox="0 0 34 30" fill="none" xmlns="http://www.w3.org/2000/svg">
<path d="M30.0674 3.90709C29.3123 3.15171 28.4159 2.55249 27.4292 2.14367C26.4426 1.73484 25.385 1.52441 24.317 1.52441C23.249 1.52441 22.1914 1.73484 21.2047 2.14367C20.2181 2.55249 19.3216 3.15171 18.5666 3.90709L16.9997 5.47404L15.4327 3.90709C13.9076 2.382 11.8391 1.5252 9.68232 1.5252C7.52551 1.5252 5.45703 2.382 3.93194 3.90709C2.40684 5.43219 1.55005 7.50067 1.55005 9.65748C1.55005 11.8143 2.40684 13.8828 3.93194 15.4079L5.49888 16.9748L16.9997 28.4756L28.5004 16.9748L30.0674 15.4079C30.8227 14.6528 31.422 13.7564 31.8308 12.7697C32.2396 11.783 32.45 10.7255 32.45 9.65748C32.45 8.58946 32.2396 7.53191 31.8308 6.54524C31.422 5.55857 30.8227 4.66212 30.0674 3.90709Z" stroke="#FB8F2C" stroke-width="2" stroke-linecap="round" stroke-linejoin="round"/>
</svg>
