<svg width="33" height="30" viewBox="0 0 33 30" fill="none" xmlns="http://www.w3.org/2000/svg">
<path d="M29.6174 3.90709C28.8624 3.15171 27.9659 2.55249 26.9793 2.14367C25.9926 1.73484 24.935 1.52441 23.867 1.52441C22.799 1.52441 21.7415 1.73484 20.7548 2.14367C19.7681 2.55249 18.8717 3.15171 18.1166 3.90709L16.5497 5.47404L14.9828 3.90709C13.4577 2.382 11.3892 1.5252 9.23237 1.5252C7.07556 1.5252 5.00708 2.382 3.48199 3.90709C1.95689 5.43219 1.1001 7.50067 1.1001 9.65748C1.1001 11.8143 1.95689 13.8828 3.48199 15.4079L5.04893 16.9748L16.5497 28.4756L28.0505 16.9748L29.6174 15.4079C30.3728 14.6528 30.972 13.7564 31.3808 12.7697C31.7897 11.783 32.0001 10.7255 32.0001 9.65748C32.0001 8.58946 31.7897 7.53191 31.3808 6.54524C30.972 5.55857 30.3728 4.66212 29.6174 3.90709Z" fill="#FB8F2C" stroke="#FB8F2C" stroke-width="2" stroke-linecap="round" stroke-linejoin="round"/>
</svg>
