<svg width="24" height="21" viewBox="0 0 24 21" fill="none" xmlns="http://www.w3.org/2000/svg">
<path d="M12 6.8C11.132 6.8 10.2996 7.13714 9.68583 7.73726C9.07208 8.33737 8.72727 9.15131 8.72727 10C8.72727 10.8487 9.07208 11.6626 9.68583 12.2627C10.2996 12.8629 11.132 13.2 12 13.2C12.868 13.2 13.7004 12.8629 14.3142 12.2627C14.9279 11.6626 15.2727 10.8487 15.2727 10C15.2727 9.15131 14.9279 8.33737 14.3142 7.73726C13.7004 7.13714 12.868 6.8 12 6.8ZM12 15.3333C10.5534 15.3333 9.16598 14.7714 8.14305 13.7712C7.12013 12.771 6.54545 11.4145 6.54545 10C6.54545 8.58551 7.12013 7.22896 8.14305 6.22876C9.16598 5.22857 10.5534 4.66667 12 4.66667C13.4466 4.66667 14.834 5.22857 15.8569 6.22876C16.8799 7.22896 17.4545 8.58551 17.4545 10C17.4545 11.4145 16.8799 12.771 15.8569 13.7712C14.834 14.7714 13.4466 15.3333 12 15.3333ZM12 2C6.54545 2 1.88727 5.31733 0 10C1.88727 14.6827 6.54545 18 12 18C17.4545 18 22.1127 14.6827 24 10C22.1127 5.31733 17.4545 2 12 2Z" fill="white" fill-opacity="0.501961"/>
</svg>
